<svg width="512" height="512" xmlns="http://www.w3.org/2000/svg">

 <g>
  <title>background</title>
  <rect fill="none" id="canvas_background" height="402" width="582" y="-1" x="-1"/>
 </g>
 <g>
  <title>Layer 1</title>
  <path fill="#666666" id="svg_2" d="m368,224c26.5,0 48,-21.5 48,-48c0,-26.5 -21.5,-48 -48,-48c-26.5,0 -48,21.5 -48,48c0,26.5 21.5,48 48,48z"/>
  <path fill="#666666" id="svg_3" d="m452,64l-392,0c-15.6,0 -28,12.7 -28,28.3l0,327.4c0,15.6 12.4,28.3 28,28.3l392,0c15.6,0 28,-12.7 28,-28.3l0,-327.4c0,-15.6 -12.4,-28.3 -28,-28.3zm-103.1,197.7c-3,-3.5 -7.6,-6.2 -12.8,-6.2c-5.1,0 -8.7,2.4 -12.8,5.7l-18.7,15.8c-3.9,2.8 -7,4.7 -11.5,4.7c-4.3,0 -8.2,-1.6 -11,-4.1c-1,-0.9 -2.8,-2.6 -4.3,-4.1l-53.8,-58.2c-4,-4.6 -10,-7.5 -16.7,-7.5c-6.7,0 -12.9,3.3 -16.8,7.8l-126.5,152.6l0,-260.5c1,-6.8 6.3,-11.7 13.1,-11.7l357.7,0c6.9,0 12.5,5.1 12.9,12l0.3,260.4l-99.1,-106.7z"/>
 </g>
</svg>